<?xml version="1.0" standalone="no"?>
<!DOCTYPE svg PUBLIC "-//W3C//DTD SVG 20010904//EN"
 "http://www.w3.org/TR/2001/REC-SVG-20010904/DTD/svg10.dtd">
<svg version="1.0" xmlns="http://www.w3.org/2000/svg"
 width="280.000000pt" height="183.000000pt" viewBox="0 0 280.000000 183.000000"
 preserveAspectRatio="xMidYMid meet">

<g transform="translate(0.000000,183.000000) scale(0.100000,-0.100000)"
fill="#000000" stroke="none">
<path d="M80 1130 l0 -640 35 0 35 0 0 640 0 640 -35 0 -35 0 0 -640z"/>
<path d="M330 1485 l0 -285 175 0 175 0 0 80 0 80 -80 0 -80 0 0 30 0 30 60 0
60 0 0 65 0 64 -57 3 c-55 3 -58 4 -61 31 l-3 27 75 0 76 0 0 80 0 80 -170 0
-170 0 0 -285z"/>
<path d="M690 1485 l0 -285 175 0 175 0 0 85 0 84 -72 3 -73 3 -3 198 -2 197
-100 0 -100 0 0 -285z"/>
<path d="M1406 1214 c-47 -32 -65 -49 -58 -56 7 -7 24 -3 54 15 69 40 95 64
83 76 -8 7 -31 -3 -79 -35z"/>
<path d="M1627 1095 c-78 -27 -117 -84 -117 -170 0 -97 40 -146 145 -176 102
-30 115 -36 115 -59 0 -28 -45 -38 -70 -15 -11 10 -20 25 -20 33 0 12 -11 13
-57 8 -127 -15 -126 -15 -120 -53 15 -89 101 -145 222 -145 146 1 228 69 229
192 0 99 -50 151 -178 184 -66 17 -92 36 -82 61 11 29 39 14 63 -33 3 -6 150
20 164 29 11 6 9 17 -7 55 -16 40 -28 53 -73 76 -61 32 -147 37 -214 13z"/>
<path d="M280 816 l0 -286 100 0 99 0 3 83 3 82 82 5 c90 6 120 21 160 79 42
62 42 170 0 233 -13 18 -43 44 -67 57 -41 23 -57 25 -212 29 l-168 5 0 -287z
m264 118 c10 -26 7 -69 -6 -82 -7 -7 -22 -12 -35 -12 -21 0 -23 4 -23 55 0 54
1 55 29 55 17 0 31 -6 35 -16z"/>
<path d="M881 1068 c-14 -44 -141 -523 -141 -531 0 -4 44 -7 99 -7 l99 0 6 45
7 45 58 0 c63 0 70 -8 71 -67 l0 -23 205 0 205 0 0 285 0 285 -100 0 -100 0 0
-272 c0 -149 -2 -269 -5 -267 -4 4 -145 525 -145 536 0 1 -56 3 -124 3 l-124
0 -11 -32z m162 -280 l6 -38 -39 0 -38 0 14 63 c27 120 26 118 39 62 6 -27 14
-67 18 -87z"/>
<path d="M900 380 c0 -5 5 -10 11 -10 5 0 7 5 4 10 -3 6 -8 10 -11 10 -2 0 -4
-4 -4 -10z"/>
<path d="M980 380 c-8 -5 -12 -11 -10 -14 3 -2 14 2 24 10 22 15 10 19 -14 4z"/>
<path d="M1140 366 c0 -19 -4 -22 -25 -18 -33 6 -55 -14 -55 -48 0 -36 18 -50
63 -48 l37 1 0 69 c0 39 -4 68 -10 68 -5 0 -10 -11 -10 -24z m-12 -38 c26 -26
2 -75 -31 -62 -22 8 -31 42 -17 59 15 18 32 19 48 3z"/>
<path d="M1190 380 c0 -5 5 -10 10 -10 6 0 10 5 10 10 0 6 -4 10 -10 10 -5 0
-10 -4 -10 -10z"/>
<path d="M1600 366 c0 -23 -3 -24 -35 -19 -30 5 -36 2 -46 -21 -9 -20 -9 -32
-1 -51 10 -22 17 -25 52 -23 l40 3 0 68 c0 37 -2 67 -5 67 -3 0 -5 -11 -5 -24z
m-10 -45 c12 -23 5 -47 -17 -55 -21 -9 -43 12 -43 39 0 36 43 47 60 16z"/>
<path d="M2164 368 c-11 -28 -6 -118 7 -118 5 0 9 20 9 45 0 29 4 45 13 45 8
0 8 3 -2 9 -12 8 -12 12 -2 25 11 13 11 16 -1 16 -8 0 -19 -10 -24 -22z"/>
<path d="M2220 380 c0 -5 5 -10 10 -10 6 0 10 5 10 10 0 6 -4 10 -10 10 -5 0
-10 -4 -10 -10z"/>
<path d="M323 373 c14 -4 17 -16 17 -64 0 -33 4 -59 10 -59 6 0 10 25 10 55 0
48 3 57 23 65 17 7 11 9 -28 8 -27 0 -42 -2 -32 -5z"/>
<path d="M422 308 c-2 -51 4 -55 66 -56 20 -1 22 4 22 49 0 27 -4 49 -10 49
-5 0 -10 -15 -10 -34 0 -71 -55 -69 -63 2 -3 33 -4 32 -5 -10z"/>
<path d="M592 270 c0 -41 3 -61 5 -44 4 29 7 31 41 30 31 -1 38 3 46 27 15 42
-2 62 -53 62 l-41 1 2 -76z m62 64 c20 -8 21 -47 2 -63 -29 -24 -65 14 -46 50
11 20 19 23 44 13z"/>
<path d="M722 338 c-15 -15 -15 -61 0 -76 17 -17 53 -15 68 3 14 17 0 21 -16
5 -12 -12 -44 -3 -44 11 0 5 16 9 35 9 27 0 35 4 35 18 0 24 -19 42 -45 42
-12 0 -26 -5 -33 -12z m58 -13 c11 -13 7 -15 -25 -15 -32 0 -36 2 -25 15 7 8
18 15 25 15 7 0 18 -7 25 -15z"/>
<path d="M832 295 c1 -43 2 -45 5 -13 3 24 12 43 26 53 22 15 22 15 -6 13 -26
-2 -27 -5 -25 -53z"/>
<path d="M903 300 c0 -30 2 -43 4 -27 2 15 2 39 0 55 -2 15 -4 2 -4 -28z"/>
<path d="M951 336 c-17 -20 -10 -67 11 -80 28 -17 72 4 76 37 2 16 -2 35 -9
43 -15 18 -63 18 -78 0z m67 -27 c3 -30 -18 -52 -42 -43 -16 6 -23 54 -9 68
16 16 48 1 51 -25z"/>
<path d="M1190 300 c0 -27 5 -50 10 -50 6 0 10 23 10 50 0 28 -4 50 -10 50 -5
0 -10 -22 -10 -50z"/>
<path d="M1242 338 c-15 -15 -15 -61 0 -76 7 -7 21 -12 33 -12 25 0 52 16 42
26 -3 4 -13 2 -20 -5 -23 -18 -47 -2 -47 30 0 34 23 48 45 29 17 -14 31 -8 20
9 -9 15 -58 14 -73 -1z"/>
<path d="M1350 329 c-26 -47 25 -100 69 -72 20 13 26 60 10 79 -18 22 -66 18
-79 -7z m70 -8 c12 -23 5 -47 -17 -55 -21 -9 -43 12 -43 39 0 36 43 47 60 16z"/>
<path d="M1652 338 c-7 -7 -12 -24 -12 -38 0 -14 5 -31 12 -38 17 -17 53 -15
68 3 14 17 0 21 -16 5 -13 -13 -46 -2 -41 14 2 6 18 10 36 8 27 -2 31 1 31 22
0 34 -52 50 -78 24z m58 -13 c11 -13 7 -15 -25 -15 -32 0 -36 2 -25 15 7 8 18
15 25 15 7 0 18 -7 25 -15z"/>
<path d="M1808 325 c-8 -19 -8 -31 0 -51 10 -21 18 -25 44 -22 17 2 33 9 36
16 3 11 0 12 -17 2 -28 -15 -51 2 -51 37 0 28 25 41 51 25 26 -16 34 -15 19 3
-21 25 -69 19 -82 -10z"/>
<path d="M1934 342 c-20 -14 -25 -45 -9 -68 21 -32 60 -31 81 1 15 23 15 27 0
50 -16 24 -50 33 -72 17z m54 -14 c30 -30 -11 -85 -44 -57 -25 21 -11 69 21
69 6 0 16 -5 23 -12z"/>
<path d="M2040 300 c0 -61 18 -67 22 -7 2 34 7 42 23 42 16 0 21 -8 23 -42 4
-51 22 -58 22 -9 0 56 -8 66 -51 66 l-39 0 0 -50z"/>
<path d="M2220 300 c0 -27 5 -50 10 -50 6 0 10 23 10 50 0 28 -4 50 -10 50 -5
0 -10 -22 -10 -50z"/>
<path d="M2272 338 c-16 -16 -15 -63 1 -77 8 -6 30 -10 50 -9 l37 1 0 46 0 46
-38 3 c-21 1 -43 -3 -50 -10z m66 -34 c2 -21 -2 -33 -12 -37 -26 -10 -46 4
-46 32 0 34 8 43 35 39 14 -2 21 -12 23 -34z"/>
<path d="M2390 299 c0 -27 5 -49 10 -49 6 0 10 18 10 40 0 71 55 64 63 -8 3
-25 4 -21 3 13 l-1 50 -42 1 -43 2 0 -49z"/>
<path d="M2523 341 l27 -6 -25 -37 c-14 -20 -25 -39 -25 -42 0 -4 17 -5 38 -5
23 1 28 3 15 6 -28 5 -28 10 -3 48 27 41 26 45 -17 44 -34 -1 -35 -2 -10 -8z"/>
<path d="M2602 338 c-16 -16 -15 -63 1 -77 8 -6 30 -10 50 -9 l37 1 0 47 0 47
-38 1 c-21 1 -44 -4 -50 -10z m66 -34 c2 -21 -2 -33 -12 -37 -26 -10 -46 4
-46 32 0 34 8 43 35 39 14 -2 21 -12 23 -34z"/>
</g>
</svg>
